<svg width="169" height="170" viewBox="0 0 169 170" version="1.1" xmlns="http://www.w3.org/2000/svg" xmlns:xlink="http://www.w3.org/1999/xlink">
<title>kufic</title>
<desc>Created using Figma</desc>
<g id="Canvas" transform="translate(-921 -87)">
<g id="kufic">
<use xlink:href="#path0_fill" transform="matrix(0.707107 0.707107 -0.707107 0.707107 1005.5 87.5)" fill="#9E9E3A"/>
</g>
</g>
<defs>
<path id="path0_fill" fill-rule="evenodd" d="M 19.9169 13.278L 19.9169 6.63893L 26.5559 6.63912L 26.5558 86.3063L 6.63901 86.3063L 6.63904 79.8148L 19.7695 79.8148L 19.7695 73.0284L 19.7693 59.7506L 13.2779 59.7506L 6.63911 59.7505L 6.63902 33.3424L 13.2779 33.3424L 13.2779 53.1117L 19.9168 53.1117L 19.9169 33.3424L 19.9168 33.1949L 19.9169 26.5559L 6.63909 26.5558L 0.000142289 26.5558L 0.000161272 59.7505L 6.63911 59.7505L 1.02175e-05 59.7507L 0 66.5372L 13.2779 66.5372L 13.2779 73.0285L 6.63907 73.0285L 6.49163 73.0284L 0.000130022 73.0285L 0.000144729 119.501L 6.63909 119.501L 6.63907 106.371L 13.278 106.371L 13.278 119.501L 19.9169 119.501L 19.9169 99.5842L 13.278 99.5841L 6.63907 99.5841L 6.63904 92.9452L 86.3062 92.9453L 86.3062 112.862L 79.8147 112.862L 79.8147 99.7317L 73.0282 99.7318L 59.7504 99.7317L 59.7504 106.223L 59.7505 112.862L 33.3423 112.862L 33.3424 106.223L 53.1115 106.223L 53.1115 99.5841L 33.3423 99.584L 33.1947 99.5841L 26.5559 99.584L 26.5558 112.862L 26.5558 119.501L 59.7505 119.501L 66.5369 119.501L 66.5368 106.223L 73.0283 106.223L 73.0284 112.862L 73.0282 113.01L 73.0284 119.501L 119.501 119.501L 119.501 112.862L 106.37 112.862L 106.37 106.223L 119.501 106.223L 119.501 99.584L 99.5841 99.584L 99.584 106.223L 99.584 112.862L 92.9452 112.862L 92.9451 33.1948L 112.862 33.1949L 112.862 39.6864L 99.7315 39.6864L 99.7315 46.4729L 99.7316 59.7507L 106.223 59.7507L 112.862 59.7506L 112.862 86.1588L 106.223 86.1588L 106.223 66.3896L 99.584 66.3896L 99.5841 86.1588L 99.584 86.3064L 99.5841 92.9453L 112.862 92.9452L 119.501 92.9452L 119.501 59.7506L 119.501 52.9642L 106.223 52.9642L 106.223 46.4728L 112.862 46.4728L 113.009 46.4728L 119.501 46.4727L 119.501 0.000189579L 112.862 0.000210598L 112.862 13.1306L 106.223 13.1306L 106.223 0.000231618L 99.5841 0.000252638L 99.5841 19.917L 106.223 19.917L 112.862 19.9171L 112.862 26.5559L 33.1949 26.5559L 33.1948 6.6391L 39.6863 6.63905L 39.6863 19.7693L 46.4728 19.7693L 59.7505 19.7694L 59.7505 13.278L 59.7506 6.63902L 86.1586 6.63914L 86.1586 13.2783L 66.3892 13.2783L 66.3893 19.9172L 86.1587 19.917L 86.306 19.9172L 92.9451 19.917L 92.9453 6.63902L 92.9453 7.94445e-05L 59.7506 6.58568e-05L 52.9641 0.000108443L 52.9641 13.2779L 46.4727 13.278L 46.4728 6.63895L 46.4728 6.49141L 46.4728 0L 0.000215578 2.30566e-05L 0.000243112 6.63893L 13.1304 6.63893L 13.1304 13.2781L 0.000124986 13.278L 0.000109361 19.917L 19.9169 19.917L 19.9169 13.278ZM 33.1948 33.1948L 33.1948 86.3063L 86.3062 86.3063L 86.3062 33.1948L 33.1948 33.1948Z"/>
</defs>
</svg>
